<svg width="28" height="33" viewBox="0 0 28 33" fill="none" xmlns="http://www.w3.org/2000/svg">
<mask id="path-1-outside-1_97_2" maskUnits="userSpaceOnUse" x="-2" y="-1" width="31" height="35" fill="black">
<rect fill="white" x="-2" y="-1" width="31" height="35"/>
<path d="M13.88 32.64C11.1067 32.64 8.52533 32.2773 6.136 31.552C3.74667 30.784 1.74133 29.6107 0.12 28.032L2.616 24.768C4.62133 26.2187 6.52 27.2427 8.312 27.84C10.104 28.3947 11.9173 28.672 13.752 28.672C16.3547 28.672 18.488 28.16 20.152 27.136C21.8587 26.112 22.712 24.8107 22.712 23.232C22.712 21.9947 22.3067 21.056 21.496 20.416C20.728 19.7333 19.704 19.2427 18.424 18.944C17.144 18.6453 15.7147 18.4107 14.136 18.24C12.6 18.0693 11.0427 17.856 9.464 17.6C7.928 17.3013 6.52 16.8747 5.24 16.32C3.96 15.7653 2.91467 14.9547 2.104 13.888C1.336 12.7787 0.952 11.3067 0.952 9.472C0.952 7.63733 1.464 6.03733 2.488 4.672C3.55467 3.30667 5.02667 2.24 6.904 1.472C8.78133 0.661332 10.9147 0.255999 13.304 0.255999C15.6507 0.255999 17.8693 0.554665 19.96 1.152C22.0933 1.70667 24.2053 2.70933 26.296 4.16L23.992 7.552C22.2427 6.31467 20.4507 5.46133 18.616 4.992C16.824 4.48 14.9893 4.224 13.112 4.224C10.7653 4.224 8.86667 4.672 7.416 5.568C5.96533 6.464 5.24 7.65867 5.24 9.152C5.24 10.3467 5.624 11.264 6.392 11.904C7.20267 12.544 8.248 13.0133 9.528 13.312C10.8507 13.6107 12.28 13.8667 13.816 14.08C15.3947 14.2507 16.952 14.4853 18.488 14.784C20.0667 15.04 21.496 15.4667 22.776 16.064C24.0987 16.6187 25.144 17.4507 25.912 18.56C26.7227 19.6267 27.128 21.0987 27.128 22.976C27.128 24.768 26.552 26.4107 25.4 27.904C24.248 29.3547 22.6693 30.5067 20.664 31.36C18.6587 32.2133 16.3973 32.64 13.88 32.64Z"/>
</mask>
<path d="M13.88 32.64C11.1067 32.64 8.52533 32.2773 6.136 31.552C3.74667 30.784 1.74133 29.6107 0.12 28.032L2.616 24.768C4.62133 26.2187 6.52 27.2427 8.312 27.84C10.104 28.3947 11.9173 28.672 13.752 28.672C16.3547 28.672 18.488 28.16 20.152 27.136C21.8587 26.112 22.712 24.8107 22.712 23.232C22.712 21.9947 22.3067 21.056 21.496 20.416C20.728 19.7333 19.704 19.2427 18.424 18.944C17.144 18.6453 15.7147 18.4107 14.136 18.24C12.6 18.0693 11.0427 17.856 9.464 17.6C7.928 17.3013 6.52 16.8747 5.24 16.32C3.96 15.7653 2.91467 14.9547 2.104 13.888C1.336 12.7787 0.952 11.3067 0.952 9.472C0.952 7.63733 1.464 6.03733 2.488 4.672C3.55467 3.30667 5.02667 2.24 6.904 1.472C8.78133 0.661332 10.9147 0.255999 13.304 0.255999C15.6507 0.255999 17.8693 0.554665 19.96 1.152C22.0933 1.70667 24.2053 2.70933 26.296 4.16L23.992 7.552C22.2427 6.31467 20.4507 5.46133 18.616 4.992C16.824 4.48 14.9893 4.224 13.112 4.224C10.7653 4.224 8.86667 4.672 7.416 5.568C5.96533 6.464 5.24 7.65867 5.24 9.152C5.24 10.3467 5.624 11.264 6.392 11.904C7.20267 12.544 8.248 13.0133 9.528 13.312C10.8507 13.6107 12.28 13.8667 13.816 14.08C15.3947 14.2507 16.952 14.4853 18.488 14.784C20.0667 15.04 21.496 15.4667 22.776 16.064C24.0987 16.6187 25.144 17.4507 25.912 18.56C26.7227 19.6267 27.128 21.0987 27.128 22.976C27.128 24.768 26.552 26.4107 25.4 27.904C24.248 29.3547 22.6693 30.5067 20.664 31.36C18.6587 32.2133 16.3973 32.64 13.88 32.64Z" fill="#FF9900"/>
<path d="M6.136 31.552L5.82999 32.504L5.83774 32.5065L5.84552 32.5089L6.136 31.552ZM0.12 28.032L-0.674358 27.4245L-1.21339 28.1294L-0.577616 28.7485L0.12 28.032ZM2.616 24.768L3.20212 23.9578L2.41315 23.387L1.82164 24.1605L2.616 24.768ZM8.312 27.84L7.99577 28.7887L8.00601 28.7921L8.01632 28.7953L8.312 27.84ZM20.152 27.136L19.6375 26.2785L19.6279 26.2843L20.152 27.136ZM21.496 20.416L20.8316 21.1634L20.8535 21.1828L20.8764 21.2009L21.496 20.416ZM14.136 18.24L14.0256 19.2339L14.0285 19.2342L14.136 18.24ZM9.464 17.6L9.27313 18.5816L9.28849 18.5846L9.30393 18.5871L9.464 17.6ZM5.24 16.32L4.84239 17.2376L4.84239 17.2376L5.24 16.32ZM2.104 13.888L1.28181 14.4572L1.29443 14.4754L1.30784 14.4931L2.104 13.888ZM2.488 4.672L1.69998 4.05636L1.69391 4.06412L1.688 4.072L2.488 4.672ZM6.904 1.472L7.28263 2.39755L7.29157 2.39389L7.30044 2.39006L6.904 1.472ZM19.96 1.152L19.6853 2.11352L19.6968 2.11681L19.7084 2.11982L19.96 1.152ZM26.296 4.16L27.1232 4.72188L27.6795 3.90285L26.8661 3.33841L26.296 4.16ZM23.992 7.552L23.4145 8.36841L24.2466 8.95693L24.8192 8.11388L23.992 7.552ZM18.616 4.992L18.3413 5.95352L18.3547 5.95735L18.3682 5.9608L18.616 4.992ZM7.416 5.568L6.89051 4.7172L6.89051 4.7172L7.416 5.568ZM6.392 11.904L5.75182 12.6722L5.76198 12.6807L5.77236 12.6889L6.392 11.904ZM9.528 13.312L9.30077 14.2859L9.30774 14.2874L9.528 13.312ZM13.816 14.08L13.6784 15.0705L13.6934 15.0726L13.7085 15.0742L13.816 14.08ZM18.488 14.784L18.2971 15.7656L18.3125 15.7686L18.3279 15.7711L18.488 14.784ZM22.776 16.064L22.3531 16.9702L22.371 16.9785L22.3893 16.9862L22.776 16.064ZM25.912 18.56L25.0898 19.1292L25.1024 19.1474L25.1158 19.1651L25.912 18.56ZM25.4 27.904L26.1832 28.5259L26.1918 28.5148L25.4 27.904ZM20.664 31.36L21.0556 32.2802L21.0556 32.2802L20.664 31.36ZM13.88 31.64C11.1943 31.64 8.71186 31.2889 6.42648 30.5951L5.84552 32.5089C8.3388 33.2658 11.019 33.64 13.88 33.64V31.64ZM6.44201 30.6C4.18341 29.874 2.31675 28.7752 0.817617 27.3155L-0.577616 28.7485C1.16592 30.4461 3.30992 31.694 5.82999 32.504L6.44201 30.6ZM0.914358 28.6394L3.41036 25.3754L1.82164 24.1605L-0.674358 27.4245L0.914358 28.6394ZM2.02988 25.5782C4.09358 27.0711 6.08269 28.151 7.99577 28.7887L8.62823 26.8913C6.95731 26.3343 5.14908 25.3662 3.20212 23.9578L2.02988 25.5782ZM8.01632 28.7953C9.9019 29.3789 11.8148 29.672 13.752 29.672V27.672C12.0198 27.672 10.3061 27.4104 8.60768 26.8847L8.01632 28.7953ZM13.752 29.672C16.48 29.672 18.8103 29.1358 20.6761 27.9877L19.6279 26.2843C18.1657 27.1842 16.2294 27.672 13.752 27.672V29.672ZM20.6665 27.9935C22.5838 26.8431 23.712 25.256 23.712 23.232H21.712C21.712 24.3653 21.1335 25.3809 19.6375 26.2785L20.6665 27.9935ZM23.712 23.232C23.712 21.7561 23.215 20.499 22.1156 19.6311L20.8764 21.2009C21.3984 21.613 21.712 22.2332 21.712 23.232H23.712ZM22.1604 19.6686C21.2378 18.8485 20.0493 18.2964 18.6512 17.9702L18.1968 19.9178C19.3587 20.1889 20.2182 20.6181 20.8316 21.1634L22.1604 19.6686ZM18.6512 17.9702C17.3247 17.6606 15.8545 17.42 14.2435 17.2458L14.0285 19.2342C15.5749 19.4014 16.9633 19.63 18.1968 19.9178L18.6512 17.9702ZM14.2464 17.2461C12.7276 17.0774 11.1868 16.8663 9.62407 16.6129L9.30393 18.5871C10.8985 18.8457 12.4724 19.0613 14.0256 19.2339L14.2464 17.2461ZM9.65487 16.6184C8.18144 16.3319 6.84375 15.9251 5.63761 15.4024L4.84239 17.2376C6.19625 17.8242 7.67456 18.2708 9.27313 18.5816L9.65487 16.6184ZM5.63761 15.4024C4.50832 14.9131 3.60263 14.2072 2.90016 13.2829L1.30784 14.4931C2.22671 15.7021 3.41169 16.6176 4.84239 17.2376L5.63761 15.4024ZM2.92619 13.3188C2.30892 12.4272 1.952 11.1748 1.952 9.472H-0.0479999C-0.0479999 11.4386 0.363085 13.1302 1.28181 14.4572L2.92619 13.3188ZM1.952 9.472C1.952 7.83646 2.4038 6.45094 3.288 5.272L1.688 4.072C0.524203 5.62373 -0.0479999 7.4382 -0.0479999 9.472H1.952ZM3.27602 5.28764C4.21849 4.08129 5.5387 3.11097 7.28263 2.39755L6.52537 0.546451C4.51464 1.36902 2.89085 2.53204 1.69998 4.05636L3.27602 5.28764ZM7.30044 2.39006C9.03331 1.64178 11.0283 1.256 13.304 1.256V-0.744001C10.801 -0.744001 8.52936 -0.319113 6.50756 0.553936L7.30044 2.39006ZM13.304 1.256C15.5651 1.256 17.6907 1.54365 19.6853 2.11352L20.2347 0.190475C18.0479 -0.434322 15.7363 -0.744001 13.304 -0.744001V1.256ZM19.7084 2.11982C21.7117 2.64068 23.7173 3.58783 25.7259 4.98159L26.8661 3.33841C24.6934 1.83084 22.475 0.772656 20.2116 0.184176L19.7084 2.11982ZM25.4688 3.59811L23.1648 6.99011L24.8192 8.11388L27.1232 4.72188L25.4688 3.59811ZM24.5695 6.73558C22.7335 5.43695 20.8313 4.52649 18.8638 4.0232L18.3682 5.9608C20.0701 6.39617 21.7519 7.19238 23.4145 8.36841L24.5695 6.73558ZM18.8907 4.03047C17.0087 3.49276 15.0816 3.224 13.112 3.224V5.224C14.8971 5.224 16.6393 5.46724 18.3413 5.95352L18.8907 4.03047ZM13.112 3.224C10.6469 3.224 8.54787 3.69354 6.89051 4.7172L7.94149 6.4188C9.18546 5.65046 10.8838 5.224 13.112 5.224V3.224ZM6.89051 4.7172C5.1944 5.7648 4.24 7.25752 4.24 9.152H6.24C6.24 8.05981 6.73627 7.1632 7.94149 6.4188L6.89051 4.7172ZM4.24 9.152C4.24 10.5795 4.71089 11.8048 5.75182 12.6722L7.03219 11.1358C6.53712 10.7232 6.24 10.1138 6.24 9.152H4.24ZM5.77236 12.6889C6.72532 13.4412 7.9154 13.9626 9.30077 14.2858L9.75523 12.3382C8.5806 12.0641 7.68001 11.6468 7.01164 11.1191L5.77236 12.6889ZM9.30774 14.2874C10.6613 14.5931 12.1185 14.8538 13.6784 15.0705L13.9536 13.0895C12.4415 12.8795 11.04 12.6282 9.74826 12.3366L9.30774 14.2874ZM13.7085 15.0742C15.2596 15.2419 16.7891 15.4724 18.2971 15.7656L18.6789 13.8024C17.1149 13.4983 15.5297 13.2594 13.9235 13.0858L13.7085 15.0742ZM18.3279 15.7711C19.8275 16.0143 21.1668 16.4165 22.3531 16.9702L23.1989 15.1578C21.8253 14.5168 20.3059 14.0657 18.6481 13.7969L18.3279 15.7711ZM22.3893 16.9862C23.5477 17.472 24.4373 18.1867 25.0898 19.1292L26.7342 17.9908C25.8507 16.7147 24.6496 15.7653 23.1627 15.1418L22.3893 16.9862ZM25.1158 19.1651C25.7504 20 26.128 21.2315 26.128 22.976H28.128C28.128 20.9658 27.6949 19.2533 26.7082 17.9549L25.1158 19.1651ZM26.128 22.976C26.128 24.5349 25.6328 25.965 24.6082 27.2932L26.1918 28.5148C27.4712 26.8563 28.128 25.0011 28.128 22.976H26.128ZM24.6169 27.2821C23.5854 28.581 22.1516 29.6402 20.2724 30.4398L21.0556 32.2802C23.1871 31.3731 24.9106 30.1283 26.1831 28.5259L24.6169 27.2821ZM20.2724 30.4398C18.4086 31.233 16.2835 31.64 13.88 31.64V33.64C16.5112 33.64 18.9087 33.1937 21.0556 32.2802L20.2724 30.4398Z" fill="black" mask="url(#path-1-outside-1_97_2)"/>
<path d="M6.136 31.552L5.82999 32.504L5.83774 32.5065L5.84552 32.5089L6.136 31.552ZM0.12 28.032L-0.674358 27.4245L-1.21339 28.1294L-0.577616 28.7485L0.12 28.032ZM2.616 24.768L3.20212 23.9578L2.41315 23.387L1.82164 24.1605L2.616 24.768ZM8.312 27.84L7.99577 28.7887L8.00601 28.7921L8.01632 28.7953L8.312 27.84ZM20.152 27.136L19.6375 26.2785L19.6279 26.2843L20.152 27.136ZM21.496 20.416L20.8316 21.1634L20.8535 21.1828L20.8764 21.2009L21.496 20.416ZM14.136 18.24L14.0256 19.2339L14.0285 19.2342L14.136 18.24ZM9.464 17.6L9.27313 18.5816L9.28849 18.5846L9.30393 18.5871L9.464 17.6ZM5.24 16.32L4.84239 17.2376L4.84239 17.2376L5.24 16.32ZM2.104 13.888L1.28181 14.4572L1.29443 14.4754L1.30784 14.4931L2.104 13.888ZM2.488 4.672L1.69998 4.05636L1.69391 4.06412L1.688 4.072L2.488 4.672ZM6.904 1.472L7.28263 2.39755L7.29157 2.39389L7.30044 2.39006L6.904 1.472ZM19.96 1.152L19.6853 2.11352L19.6968 2.11681L19.7084 2.11982L19.96 1.152ZM26.296 4.16L27.1232 4.72188L27.6795 3.90285L26.8661 3.33841L26.296 4.16ZM23.992 7.552L23.4145 8.36841L24.2466 8.95693L24.8192 8.11388L23.992 7.552ZM18.616 4.992L18.3413 5.95352L18.3547 5.95735L18.3682 5.9608L18.616 4.992ZM7.416 5.568L6.89051 4.7172L6.89051 4.7172L7.416 5.568ZM6.392 11.904L5.75182 12.6722L5.76198 12.6807L5.77236 12.6889L6.392 11.904ZM9.528 13.312L9.30077 14.2859L9.30774 14.2874L9.528 13.312ZM13.816 14.08L13.6784 15.0705L13.6934 15.0726L13.7085 15.0742L13.816 14.08ZM18.488 14.784L18.2971 15.7656L18.3125 15.7686L18.3279 15.7711L18.488 14.784ZM22.776 16.064L22.3531 16.9702L22.371 16.9785L22.3893 16.9862L22.776 16.064ZM25.912 18.56L25.0898 19.1292L25.1024 19.1474L25.1158 19.1651L25.912 18.56ZM25.4 27.904L26.1832 28.5259L26.1918 28.5148L25.4 27.904ZM20.664 31.36L21.0556 32.2802L21.0556 32.2802L20.664 31.36ZM13.88 31.64C11.1943 31.64 8.71186 31.2889 6.42648 30.5951L5.84552 32.5089C8.3388 33.2658 11.019 33.64 13.88 33.64V31.64ZM6.44201 30.6C4.18341 29.874 2.31675 28.7752 0.817617 27.3155L-0.577616 28.7485C1.16592 30.4461 3.30992 31.694 5.82999 32.504L6.44201 30.6ZM0.914358 28.6394L3.41036 25.3754L1.82164 24.1605L-0.674358 27.4245L0.914358 28.6394ZM2.02988 25.5782C4.09358 27.0711 6.08269 28.151 7.99577 28.7887L8.62823 26.8913C6.95731 26.3343 5.14908 25.3662 3.20212 23.9578L2.02988 25.5782ZM8.01632 28.7953C9.9019 29.3789 11.8148 29.672 13.752 29.672V27.672C12.0198 27.672 10.3061 27.4104 8.60768 26.8847L8.01632 28.7953ZM13.752 29.672C16.48 29.672 18.8103 29.1358 20.6761 27.9877L19.6279 26.2843C18.1657 27.1842 16.2294 27.672 13.752 27.672V29.672ZM20.6665 27.9935C22.5838 26.8431 23.712 25.256 23.712 23.232H21.712C21.712 24.3653 21.1335 25.3809 19.6375 26.2785L20.6665 27.9935ZM23.712 23.232C23.712 21.7561 23.215 20.499 22.1156 19.6311L20.8764 21.2009C21.3984 21.613 21.712 22.2332 21.712 23.232H23.712ZM22.1604 19.6686C21.2378 18.8485 20.0493 18.2964 18.6512 17.9702L18.1968 19.9178C19.3587 20.1889 20.2182 20.6181 20.8316 21.1634L22.1604 19.6686ZM18.6512 17.9702C17.3247 17.6606 15.8545 17.42 14.2435 17.2458L14.0285 19.2342C15.5749 19.4014 16.9633 19.63 18.1968 19.9178L18.6512 17.9702ZM14.2464 17.2461C12.7276 17.0774 11.1868 16.8663 9.62407 16.6129L9.30393 18.5871C10.8985 18.8457 12.4724 19.0613 14.0256 19.2339L14.2464 17.2461ZM9.65487 16.6184C8.18144 16.3319 6.84375 15.9251 5.63761 15.4024L4.84239 17.2376C6.19625 17.8242 7.67456 18.2708 9.27313 18.5816L9.65487 16.6184ZM5.63761 15.4024C4.50832 14.9131 3.60263 14.2072 2.90016 13.2829L1.30784 14.4931C2.22671 15.7021 3.41169 16.6176 4.84239 17.2376L5.63761 15.4024ZM2.92619 13.3188C2.30892 12.4272 1.952 11.1748 1.952 9.472H-0.0479999C-0.0479999 11.4386 0.363085 13.1302 1.28181 14.4572L2.92619 13.3188ZM1.952 9.472C1.952 7.83646 2.4038 6.45094 3.288 5.272L1.688 4.072C0.524203 5.62373 -0.0479999 7.4382 -0.0479999 9.472H1.952ZM3.27602 5.28764C4.21849 4.08129 5.5387 3.11097 7.28263 2.39755L6.52537 0.546451C4.51464 1.36902 2.89085 2.53204 1.69998 4.05636L3.27602 5.28764ZM7.30044 2.39006C9.03331 1.64178 11.0283 1.256 13.304 1.256V-0.744001C10.801 -0.744001 8.52936 -0.319113 6.50756 0.553936L7.30044 2.39006ZM13.304 1.256C15.5651 1.256 17.6907 1.54365 19.6853 2.11352L20.2347 0.190475C18.0479 -0.434322 15.7363 -0.744001 13.304 -0.744001V1.256ZM19.7084 2.11982C21.7117 2.64068 23.7173 3.58783 25.7259 4.98159L26.8661 3.33841C24.6934 1.83084 22.475 0.772656 20.2116 0.184176L19.7084 2.11982ZM25.4688 3.59811L23.1648 6.99011L24.8192 8.11388L27.1232 4.72188L25.4688 3.59811ZM24.5695 6.73558C22.7335 5.43695 20.8313 4.52649 18.8638 4.0232L18.3682 5.9608C20.0701 6.39617 21.7519 7.19238 23.4145 8.36841L24.5695 6.73558ZM18.8907 4.03047C17.0087 3.49276 15.0816 3.224 13.112 3.224V5.224C14.8971 5.224 16.6393 5.46724 18.3413 5.95352L18.8907 4.03047ZM13.112 3.224C10.6469 3.224 8.54787 3.69354 6.89051 4.7172L7.94149 6.4188C9.18546 5.65046 10.8838 5.224 13.112 5.224V3.224ZM6.89051 4.7172C5.1944 5.7648 4.24 7.25752 4.24 9.152H6.24C6.24 8.05981 6.73627 7.1632 7.94149 6.4188L6.89051 4.7172ZM4.24 9.152C4.24 10.5795 4.71089 11.8048 5.75182 12.6722L7.03219 11.1358C6.53712 10.7232 6.24 10.1138 6.24 9.152H4.24ZM5.77236 12.6889C6.72532 13.4412 7.9154 13.9626 9.30077 14.2858L9.75523 12.3382C8.5806 12.0641 7.68001 11.6468 7.01164 11.1191L5.77236 12.6889ZM9.30774 14.2874C10.6613 14.5931 12.1185 14.8538 13.6784 15.0705L13.9536 13.0895C12.4415 12.8795 11.04 12.6282 9.74826 12.3366L9.30774 14.2874ZM13.7085 15.0742C15.2596 15.2419 16.7891 15.4724 18.2971 15.7656L18.6789 13.8024C17.1149 13.4983 15.5297 13.2594 13.9235 13.0858L13.7085 15.0742ZM18.3279 15.7711C19.8275 16.0143 21.1668 16.4165 22.3531 16.9702L23.1989 15.1578C21.8253 14.5168 20.3059 14.0657 18.6481 13.7969L18.3279 15.7711ZM22.3893 16.9862C23.5477 17.472 24.4373 18.1867 25.0898 19.1292L26.7342 17.9908C25.8507 16.7147 24.6496 15.7653 23.1627 15.1418L22.3893 16.9862ZM25.1158 19.1651C25.7504 20 26.128 21.2315 26.128 22.976H28.128C28.128 20.9658 27.6949 19.2533 26.7082 17.9549L25.1158 19.1651ZM26.128 22.976C26.128 24.5349 25.6328 25.965 24.6082 27.2932L26.1918 28.5148C27.4712 26.8563 28.128 25.0011 28.128 22.976H26.128ZM24.6169 27.2821C23.5854 28.581 22.1516 29.6402 20.2724 30.4398L21.0556 32.2802C23.1871 31.3731 24.9106 30.1283 26.1831 28.5259L24.6169 27.2821ZM20.2724 30.4398C18.4086 31.233 16.2835 31.64 13.88 31.64V33.64C16.5112 33.64 18.9087 33.1937 21.0556 32.2802L20.2724 30.4398Z" fill="black" fill-opacity="0.2" mask="url(#path-1-outside-1_97_2)"/>
</svg>
